<!--?xml version="1.0" encoding="UTF-8" standalone="no"?--><svg width="100%" height="100%" viewBox="0 0 1920 1080" version="1.1" xmlns="http://www.w3.org/2000/svg" xmlns:xlink="http://www.w3.org/1999/xlink" xml:space="preserve" xmlns:serif="http://www.serif.com/" style="fill-rule: evenodd; clip-rule: evenodd; stroke-linejoin: round; stroke-miterlimit: 1.41421;"><g><path d="M599.041,409.037l-36.532,-137.678l18.689,0l20.943,90.251c2.253,9.454 4.194,18.846 5.822,28.174c3.506,-14.713 5.572,-23.196 6.199,-25.45l26.202,-92.975l21.975,0l19.722,69.684c4.947,17.28 8.515,33.527 10.707,48.741c1.753,-8.702 4.038,-18.688 6.855,-29.958l21.601,-88.467l18.313,0l-37.754,137.678l-17.562,0l-29.019,-104.902c-2.442,-8.765 -3.882,-14.15 -4.32,-16.153c-1.44,6.323 -2.786,11.708 -4.038,16.153l-29.208,104.902l-18.595,0Z" style="fill:none;stroke:#000;stroke-width:4px;" class="fELdpZpP_0"></path><path d="M819.176,376.918l17.468,2.16c-2.755,10.206 -7.858,18.126 -15.308,23.761c-7.451,5.634 -16.967,8.452 -28.55,8.452c-14.588,0 -26.155,-4.492 -34.701,-13.477c-8.546,-8.984 -12.819,-21.584 -12.819,-37.8c0,-16.78 4.32,-29.802 12.96,-39.068c8.64,-9.267 19.847,-13.9 33.621,-13.9c13.336,0 24.23,4.539 32.682,13.618c8.452,9.078 12.678,21.85 12.678,38.317c0,1.001 -0.031,2.504 -0.094,4.508l-74.379,0c0.626,10.956 3.725,19.346 9.297,25.169c5.572,5.822 12.522,8.734 20.849,8.734c6.198,0 11.489,-1.628 15.871,-4.884c4.383,-3.256 7.858,-8.452 10.425,-15.59Zm-55.503,-27.329l55.691,0c-0.752,-8.389 -2.88,-14.682 -6.386,-18.876c-5.385,-6.512 -12.366,-9.767 -20.943,-9.767c-7.764,0 -14.291,2.598 -19.581,7.794c-5.291,5.197 -8.218,12.147 -8.781,20.849Z" style="fill:none;stroke:#000;stroke-width:4px;" class="fELdpZpP_1"></path><path width="16.905" height="137.678" style="fill:none;stroke:#000;stroke-width:4px;" d="M857.493 271.359 L874.398 271.359 L874.398 409.037 L857.493 409.037 Z" class="fELdpZpP_2"></path><path d="M965.682,372.504l16.623,2.16c-1.816,11.458 -6.465,20.427 -13.947,26.907c-7.481,6.48 -16.669,9.72 -27.563,9.72c-13.649,0 -24.622,-4.461 -32.917,-13.383c-8.296,-8.922 -12.444,-21.71 -12.444,-38.364c0,-10.769 1.784,-20.191 5.353,-28.268c3.569,-8.077 9,-14.134 16.294,-18.172c7.294,-4.039 15.23,-6.058 23.807,-6.058c10.832,0 19.691,2.739 26.578,8.218c6.887,5.478 11.301,13.257 13.242,23.337l-16.435,2.536c-1.565,-6.699 -4.336,-11.739 -8.311,-15.12c-3.976,-3.381 -8.781,-5.071 -14.416,-5.071c-8.515,0 -15.433,3.052 -20.755,9.156c-5.322,6.105 -7.983,15.762 -7.983,28.973c0,13.398 2.567,23.134 7.701,29.207c5.134,6.073 11.833,9.11 20.098,9.11c6.636,0 12.177,-2.035 16.623,-6.105c4.445,-4.069 7.262,-10.33 8.452,-18.783Z" style="fill:none;stroke:#000;stroke-width:4px;" class="fELdpZpP_3"></path><path d="M990.475,359.169c0,-18.47 5.134,-32.15 15.402,-41.041c8.577,-7.388 19.033,-11.082 31.367,-11.082c13.712,0 24.919,4.492 33.622,13.477c8.702,8.984 13.054,21.397 13.054,37.237c0,12.835 -1.926,22.93 -5.776,30.287c-3.851,7.357 -9.454,13.07 -16.811,17.139c-7.356,4.07 -15.386,6.105 -24.089,6.105c-13.962,0 -25.247,-4.477 -33.856,-13.43c-8.609,-8.953 -12.913,-21.851 -12.913,-38.692Zm17.374,0c0,12.772 2.786,22.335 8.359,28.69c5.572,6.355 12.584,9.533 21.036,9.533c8.39,0 15.371,-3.194 20.943,-9.58c5.572,-6.386 8.358,-16.122 8.358,-29.207c0,-12.334 -2.801,-21.678 -8.405,-28.033c-5.603,-6.355 -12.569,-9.533 -20.896,-9.533c-8.452,0 -15.464,3.162 -21.036,9.486c-5.573,6.323 -8.359,15.871 -8.359,28.644Z" style="fill:none;stroke:#000;stroke-width:4px;" class="fELdpZpP_4"></path><path d="M1103.74,409.037l0,-99.737l15.121,0l0,13.993c3.13,-4.883 7.294,-8.812 12.49,-11.786c5.197,-2.974 11.113,-4.461 17.75,-4.461c7.388,0 13.445,1.534 18.172,4.602c4.727,3.068 8.061,7.357 10.002,12.866c7.889,-11.645 18.157,-17.468 30.804,-17.468c9.892,0 17.499,2.739 22.821,8.218c5.322,5.478 7.983,13.915 7.983,25.31l0,68.463l-16.811,0l0,-62.829c0,-6.761 -0.548,-11.629 -1.643,-14.603c-1.096,-2.974 -3.084,-5.369 -5.964,-7.185c-2.88,-1.815 -6.261,-2.723 -10.143,-2.723c-7.012,0 -12.835,2.332 -17.468,6.996c-4.633,4.665 -6.949,12.131 -6.949,22.399l0,57.945l-16.905,0l0,-64.801c0,-7.513 -1.377,-13.148 -4.132,-16.904c-2.755,-3.757 -7.263,-5.635 -13.524,-5.635c-4.758,0 -9.156,1.252 -13.195,3.756c-4.038,2.505 -6.965,6.167 -8.781,10.988c-1.815,4.821 -2.723,11.771 -2.723,20.849l0,51.747l-16.905,0Z" style="fill:none;stroke:#000;stroke-width:4px;" class="fELdpZpP_5"></path><path d="M1332.23,376.918l17.468,2.16c-2.755,10.206 -7.857,18.126 -15.308,23.761c-7.45,5.634 -16.967,8.452 -28.55,8.452c-14.588,0 -26.155,-4.492 -34.701,-13.477c-8.546,-8.984 -12.819,-21.584 -12.819,-37.8c0,-16.78 4.32,-29.802 12.96,-39.068c8.64,-9.267 19.847,-13.9 33.621,-13.9c13.336,0 24.23,4.539 32.682,13.618c8.453,9.078 12.679,21.85 12.679,38.317c0,1.001 -0.032,2.504 -0.094,4.508l-74.38,0c0.626,10.956 3.725,19.346 9.297,25.169c5.573,5.822 12.522,8.734 20.849,8.734c6.199,0 11.489,-1.628 15.872,-4.884c4.382,-3.256 7.857,-8.452 10.424,-15.59Zm-55.503,-27.329l55.691,0c-0.751,-8.389 -2.88,-14.682 -6.386,-18.876c-5.384,-6.512 -12.365,-9.767 -20.943,-9.767c-7.763,0 -14.29,2.598 -19.581,7.794c-5.29,5.197 -8.217,12.147 -8.781,20.849Z" style="fill:none;stroke:#000;stroke-width:4px;" class="fELdpZpP_6"></path><path d="M907.502,607.665l0,-121.431l-45.36,0l0,-16.247l109.128,0l0,16.247l-45.549,0l0,121.431l-18.219,0Z" style="fill:none;stroke:#000;stroke-width:4px;" class="fELdpZpP_7"></path><path d="M960.188,557.797c0,-18.47 5.134,-32.15 15.402,-41.041c8.577,-7.388 19.033,-11.082 31.367,-11.082c13.711,0 24.919,4.493 33.621,13.477c8.703,8.985 13.054,21.397 13.054,37.237c0,12.835 -1.925,22.931 -5.775,30.287c-3.851,7.357 -9.454,13.07 -16.811,17.14c-7.357,4.069 -15.386,6.104 -24.089,6.104c-13.962,0 -25.247,-4.477 -33.856,-13.43c-8.609,-8.953 -12.913,-21.85 -12.913,-38.692Zm17.374,0c0,12.772 2.786,22.336 8.358,28.69c5.573,6.355 12.585,9.533 21.037,9.533c8.39,0 15.371,-3.193 20.943,-9.58c5.572,-6.386 8.358,-16.121 8.358,-29.207c0,-12.334 -2.802,-21.678 -8.405,-28.033c-5.604,-6.355 -12.569,-9.532 -20.896,-9.532c-8.452,0 -15.464,3.161 -21.037,9.485c-5.572,6.323 -8.358,15.871 -8.358,28.644Z" style="fill:none;stroke:#000;stroke-width:4px;" class="fELdpZpP_8"></path><path d="M211.27,758.021l18.22,4.602c-3.82,14.964 -10.691,26.374 -20.614,34.232c-9.924,7.857 -22.055,11.786 -36.392,11.786c-14.839,0 -26.907,-3.021 -36.204,-9.063c-9.298,-6.041 -16.372,-14.791 -21.225,-26.249c-4.852,-11.457 -7.278,-23.76 -7.278,-36.908c0,-14.337 2.739,-26.844 8.218,-37.518c5.478,-10.675 13.273,-18.783 23.384,-24.324c10.112,-5.541 21.24,-8.312 33.387,-8.312c13.774,0 25.356,3.507 34.748,10.519c9.391,7.012 15.934,16.873 19.628,29.583l-17.938,4.226c-3.193,-10.018 -7.826,-17.312 -13.899,-21.882c-6.073,-4.571 -13.712,-6.856 -22.915,-6.856c-10.581,0 -19.425,2.536 -26.531,7.607c-7.106,5.072 -12.099,11.88 -14.979,20.426c-2.88,8.547 -4.32,17.359 -4.32,26.437c0,11.708 1.706,21.929 5.118,30.663c3.412,8.734 8.719,15.261 15.919,19.581c7.2,4.32 14.995,6.48 23.384,6.48c10.206,0 18.846,-2.942 25.92,-8.828c7.075,-5.885 11.865,-14.619 14.369,-26.202Z" style="fill:none;stroke:#000;stroke-width:4px;" class="fELdpZpP_9"></path><path d="M249.587,806.293l0,-99.736l15.214,0l0,15.12c3.882,-7.075 7.466,-11.74 10.753,-13.993c3.287,-2.254 6.903,-3.381 10.848,-3.381c5.697,0 11.488,1.815 17.374,5.447l-5.823,15.683c-4.132,-2.441 -8.264,-3.662 -12.397,-3.662c-3.694,0 -7.012,1.111 -9.955,3.334c-2.942,2.222 -5.04,5.306 -6.292,9.25c-1.878,6.011 -2.817,12.585 -2.817,19.722l0,52.216l-16.905,0Z" style="fill:none;stroke:#000;stroke-width:4px;" class="fELdpZpP_10"></path><path d="M378.907,793.991c-6.261,5.321 -12.287,9.078 -18.079,11.269c-5.791,2.192 -12.005,3.287 -18.642,3.287c-10.956,0 -19.377,-2.676 -25.262,-8.029c-5.886,-5.354 -8.828,-12.194 -8.828,-20.521c0,-4.883 1.111,-9.344 3.334,-13.382c2.222,-4.039 5.134,-7.279 8.734,-9.721c3.6,-2.441 7.654,-4.288 12.162,-5.54c3.318,-0.877 8.327,-1.722 15.026,-2.536c13.649,-1.628 23.697,-3.569 30.146,-5.823c0.063,-2.316 0.094,-3.788 0.094,-4.414c0,-6.887 -1.596,-11.739 -4.79,-14.556c-4.32,-3.82 -10.737,-5.729 -19.252,-5.729c-7.951,0 -13.821,1.393 -17.609,4.179c-3.788,2.786 -6.589,7.717 -8.405,14.791l-16.529,-2.253c1.503,-7.075 3.976,-12.788 7.419,-17.14c3.444,-4.351 8.421,-7.701 14.933,-10.049c6.511,-2.347 14.055,-3.521 22.633,-3.521c8.515,0 15.433,1.001 20.755,3.005c5.322,2.003 9.235,4.523 11.739,7.56c2.504,3.036 4.258,6.871 5.259,11.504c0.564,2.88 0.846,8.077 0.846,15.59l0,22.54c0,15.714 0.36,25.654 1.08,29.817c0.72,4.164 2.144,8.155 4.273,11.974l-17.656,0c-1.753,-3.506 -2.88,-7.607 -3.381,-12.302Zm-1.409,-37.754c-6.136,2.504 -15.339,4.633 -27.611,6.386c-6.949,1.002 -11.864,2.129 -14.744,3.381c-2.88,1.252 -5.103,3.084 -6.668,5.494c-1.565,2.411 -2.348,5.087 -2.348,8.03c0,4.508 1.706,8.264 5.119,11.269c3.412,3.006 8.405,4.508 14.979,4.508c6.511,0 12.303,-1.424 17.374,-4.273c5.071,-2.848 8.797,-6.746 11.176,-11.692c1.815,-3.819 2.723,-9.454 2.723,-16.905l0,-6.198Z" style="fill:none;stroke:#000;stroke-width:4px;" class="fELdpZpP_11"></path><path d="M424.831,806.293l0,-86.588l-14.932,0l0,-13.148l14.932,0l0,-10.613c0,-6.699 0.595,-11.676 1.784,-14.932c1.628,-4.383 4.492,-7.936 8.593,-10.659c4.101,-2.724 9.846,-4.086 17.234,-4.086c4.758,0 10.017,0.564 15.777,1.691l-2.536,14.744c-3.506,-0.626 -6.824,-0.939 -9.954,-0.939c-5.134,0 -8.766,1.096 -10.894,3.287c-2.129,2.192 -3.194,6.292 -3.194,12.303l0,9.204l19.441,0l0,13.148l-19.441,0l0,86.588l-16.81,0Z" style="fill:none;stroke:#000;stroke-width:4px;" class="fELdpZpP_12"></path><path d="M511.138,791.173l2.442,14.932c-4.759,1.002 -9.016,1.503 -12.773,1.503c-6.135,0 -10.894,-0.97 -14.275,-2.911c-3.381,-1.941 -5.76,-4.493 -7.137,-7.654c-1.378,-3.162 -2.066,-9.814 -2.066,-19.957l0,-57.381l-12.397,0l0,-13.148l12.397,0l0,-24.7l16.81,-10.143l0,34.843l16.999,0l0,13.148l-16.999,0l0,58.32c0,4.821 0.298,7.92 0.893,9.298c0.594,1.377 1.565,2.473 2.911,3.287c1.346,0.814 3.271,1.22 5.776,1.22c1.878,0 4.351,-0.219 7.419,-0.657Z" style="fill:none;stroke:#000;stroke-width:4px;" class="fELdpZpP_13"></path><path d="M529.263,806.293l0,-137.678l27.423,0l32.588,97.483c3.006,9.078 5.197,15.872 6.574,20.379c1.566,-5.008 4.007,-12.365 7.326,-22.069l32.963,-95.793l24.512,0l0,137.678l-17.562,0l0,-115.232l-40.007,115.232l-16.435,0l-39.82,-117.204l0,117.204l-17.562,0Z" style="fill:none;stroke:#000;stroke-width:4px;" class="fELdpZpP_14"></path><path d="M752.967,793.991c-6.261,5.321 -12.288,9.078 -18.079,11.269c-5.791,2.192 -12.005,3.287 -18.642,3.287c-10.957,0 -19.377,-2.676 -25.263,-8.029c-5.885,-5.354 -8.828,-12.194 -8.828,-20.521c0,-4.883 1.112,-9.344 3.334,-13.382c2.223,-4.039 5.134,-7.279 8.734,-9.721c3.6,-2.441 7.654,-4.288 12.162,-5.54c3.318,-0.877 8.327,-1.722 15.026,-2.536c13.649,-1.628 23.698,-3.569 30.147,-5.823c0.062,-2.316 0.094,-3.788 0.094,-4.414c0,-6.887 -1.597,-11.739 -4.79,-14.556c-4.32,-3.82 -10.737,-5.729 -19.252,-5.729c-7.952,0 -13.821,1.393 -17.609,4.179c-3.788,2.786 -6.59,7.717 -8.405,14.791l-16.529,-2.253c1.502,-7.075 3.975,-12.788 7.419,-17.14c3.443,-4.351 8.421,-7.701 14.932,-10.049c6.512,-2.347 14.056,-3.521 22.633,-3.521c8.515,0 15.434,1.001 20.755,3.005c5.322,2.003 9.235,4.523 11.74,7.56c2.504,3.036 4.257,6.871 5.259,11.504c0.563,2.88 0.845,8.077 0.845,15.59l0,22.54c0,15.714 0.36,25.654 1.08,29.817c0.72,4.164 2.145,8.155 4.273,11.974l-17.656,0c-1.753,-3.506 -2.88,-7.607 -3.38,-12.302Zm-1.409,-37.754c-6.136,2.504 -15.34,4.633 -27.611,6.386c-6.95,1.002 -11.864,2.129 -14.744,3.381c-2.88,1.252 -5.103,3.084 -6.668,5.494c-1.566,2.411 -2.348,5.087 -2.348,8.03c0,4.508 1.706,8.264 5.118,11.269c3.412,3.006 8.405,4.508 14.979,4.508c6.512,0 12.303,-1.424 17.375,-4.273c5.071,-2.848 8.796,-6.746 11.175,-11.692c1.816,-3.819 2.724,-9.454 2.724,-16.905l0,-6.198Z" style="fill:none;stroke:#000;stroke-width:4px;" class="fELdpZpP_15"></path><path d="M831.76,791.173l2.442,14.932c-4.758,1.002 -9.016,1.503 -12.772,1.503c-6.136,0 -10.894,-0.97 -14.275,-2.911c-3.381,-1.941 -5.76,-4.493 -7.138,-7.654c-1.377,-3.162 -2.066,-9.814 -2.066,-19.957l0,-57.381l-12.396,0l0,-13.148l12.396,0l0,-24.7l16.811,-10.143l0,34.843l16.998,0l0,13.148l-16.998,0l0,58.32c0,4.821 0.297,7.92 0.892,9.298c0.595,1.377 1.565,2.473 2.911,3.287c1.347,0.814 3.272,1.22 5.776,1.22c1.878,0 4.352,-0.219 7.419,-0.657Z" style="fill:none;stroke:#000;stroke-width:4px;" class="fELdpZpP_16"></path><path d="M848.289,806.293l0,-137.678l16.905,0l0,49.399c7.889,-9.141 17.843,-13.711 29.864,-13.711c7.388,0 13.806,1.455 19.253,4.367c5.447,2.911 9.344,6.934 11.692,12.068c2.348,5.134 3.522,12.584 3.522,22.351l0,63.204l-16.905,0l0,-63.204c0,-8.452 -1.831,-14.604 -5.494,-18.454c-3.662,-3.85 -8.843,-5.776 -15.542,-5.776c-5.009,0 -9.72,1.299 -14.134,3.898c-4.414,2.598 -7.561,6.12 -9.439,10.565c-1.878,4.445 -2.817,10.581 -2.817,18.407l0,54.564l-16.905,0Z" style="fill:none;stroke:#000;stroke-width:4px;" class="fELdpZpP_17"></path><path d="M955.351,717.357l-4.32,-25.733l0,-23.009l19.253,0l0,23.009l-4.508,25.733l-10.425,0Z" style="fill:none;stroke:#000;stroke-width:4px;" class="fELdpZpP_18"></path><path d="M985.216,776.523l16.717,-2.63c0.939,6.699 3.553,11.833 7.841,15.402c4.289,3.569 10.284,5.353 17.985,5.353c7.764,0 13.524,-1.581 17.28,-4.743c3.757,-3.162 5.635,-6.871 5.635,-11.129c0,-3.819 -1.659,-6.824 -4.977,-9.015c-2.317,-1.503 -8.077,-3.413 -17.281,-5.729c-12.396,-3.131 -20.989,-5.838 -25.779,-8.124c-4.79,-2.285 -8.421,-5.447 -10.894,-9.485c-2.473,-4.038 -3.71,-8.499 -3.71,-13.383c0,-4.445 1.018,-8.562 3.053,-12.349c2.034,-3.788 4.805,-6.934 8.311,-9.439c2.63,-1.941 6.214,-3.584 10.753,-4.93c4.539,-1.346 9.407,-2.019 14.604,-2.019c7.826,0 14.697,1.127 20.614,3.381c5.916,2.253 10.283,5.306 13.101,9.156c2.817,3.851 4.758,9 5.823,15.449l-16.529,2.254c-0.752,-5.134 -2.927,-9.141 -6.527,-12.021c-3.6,-2.88 -8.687,-4.32 -15.261,-4.32c-7.764,0 -13.305,1.283 -16.623,3.85c-3.318,2.567 -4.978,5.573 -4.978,9.016c0,2.191 0.689,4.164 2.066,5.917c1.378,1.815 3.538,3.318 6.481,4.508c1.69,0.626 6.667,2.066 14.932,4.32c11.958,3.193 20.301,5.807 25.028,7.841c4.727,2.035 8.437,4.994 11.129,8.875c2.692,3.882 4.038,8.703 4.038,14.463c0,5.635 -1.643,10.941 -4.93,15.919c-3.287,4.977 -8.03,8.827 -14.228,11.551c-6.199,2.723 -13.211,4.085 -21.037,4.085c-12.96,0 -22.837,-2.692 -29.63,-8.076c-6.793,-5.385 -11.129,-13.368 -13.007,-23.948Z" style="fill:none;stroke:#000;stroke-width:4px;" class="fELdpZpP_19"></path><path d="M1167.79,806.293l-36.533,-137.678l18.689,0l20.943,90.252c2.254,9.454 4.195,18.845 5.823,28.174c3.506,-14.713 5.572,-23.197 6.198,-25.451l26.202,-92.975l21.976,0l19.722,69.684c4.946,17.281 8.515,33.528 10.706,48.742c1.753,-8.703 4.038,-18.689 6.856,-29.959l21.6,-88.467l18.313,0l-37.753,137.678l-17.562,0l-29.02,-104.902c-2.441,-8.765 -3.881,-14.149 -4.32,-16.153c-1.44,6.324 -2.786,11.708 -4.038,16.153l-29.207,104.902l-18.595,0Z" style="fill:none;stroke:#000;stroke-width:4px;" class="fELdpZpP_20"></path><path d="M1387.92,774.175l17.468,2.16c-2.754,10.205 -7.857,18.125 -15.308,23.76c-7.45,5.635 -16.967,8.452 -28.55,8.452c-14.588,0 -26.155,-4.492 -34.701,-13.476c-8.546,-8.985 -12.819,-21.585 -12.819,-37.801c0,-16.779 4.32,-29.802 12.96,-39.068c8.64,-9.266 19.847,-13.899 33.621,-13.899c13.336,0 24.23,4.539 32.682,13.617c8.453,9.079 12.679,21.851 12.679,38.317c0,1.002 -0.031,2.504 -0.094,4.508l-74.38,0c0.626,10.957 3.725,19.346 9.297,25.169c5.573,5.823 12.522,8.734 20.849,8.734c6.199,0 11.489,-1.628 15.872,-4.884c4.383,-3.255 7.857,-8.452 10.424,-15.589Zm-55.503,-27.329l55.691,0c-0.751,-8.39 -2.88,-14.682 -6.386,-18.877c-5.384,-6.511 -12.365,-9.767 -20.943,-9.767c-7.763,0 -14.29,2.598 -19.581,7.795c-5.29,5.196 -8.217,12.146 -8.781,20.849Z" style="fill:none;stroke:#000;stroke-width:4px;" class="fELdpZpP_21"></path><path d="M1442.2,806.293l-15.684,0l0,-137.678l16.905,0l0,49.117c7.137,-8.953 16.247,-13.429 27.329,-13.429c6.135,0 11.942,1.236 17.421,3.709c5.478,2.473 9.986,5.948 13.523,10.425c3.538,4.476 6.308,9.876 8.312,16.2c2.003,6.323 3.005,13.085 3.005,20.285c0,17.093 -4.226,30.303 -12.679,39.632c-8.452,9.329 -18.595,13.993 -30.428,13.993c-11.77,0 -21.005,-4.915 -27.704,-14.744l0,12.49Zm-0.188,-50.619c0,11.958 1.628,20.598 4.883,25.92c5.322,8.703 12.522,13.054 21.601,13.054c7.387,0 13.774,-3.209 19.158,-9.626c5.384,-6.418 8.077,-15.981 8.077,-28.691c0,-13.023 -2.583,-22.633 -7.748,-28.832c-5.166,-6.198 -11.411,-9.297 -18.736,-9.297c-7.388,0 -13.774,3.209 -19.159,9.626c-5.384,6.418 -8.076,15.699 -8.076,27.846Z" style="fill:none;stroke:#000;stroke-width:4px;" class="fELdpZpP_22"></path><path d="M1526.82,776.523l16.717,-2.63c0.939,6.699 3.553,11.833 7.842,15.402c4.288,3.569 10.283,5.353 17.984,5.353c7.764,0 13.524,-1.581 17.28,-4.743c3.757,-3.162 5.635,-6.871 5.635,-11.129c0,-3.819 -1.659,-6.824 -4.977,-9.015c-2.317,-1.503 -8.077,-3.413 -17.28,-5.729c-12.397,-3.131 -20.99,-5.838 -25.78,-8.124c-4.789,-2.285 -8.421,-5.447 -10.894,-9.485c-2.473,-4.038 -3.709,-8.499 -3.709,-13.383c0,-4.445 1.017,-8.562 3.052,-12.349c2.035,-3.788 4.805,-6.934 8.311,-9.439c2.63,-1.941 6.214,-3.584 10.753,-4.93c4.54,-1.346 9.407,-2.019 14.604,-2.019c7.826,0 14.698,1.127 20.614,3.381c5.917,2.253 10.284,5.306 13.101,9.156c2.818,3.851 4.758,9 5.823,15.449l-16.529,2.254c-0.751,-5.134 -2.927,-9.141 -6.527,-12.021c-3.6,-2.88 -8.687,-4.32 -15.261,-4.32c-7.764,0 -13.305,1.283 -16.623,3.85c-3.318,2.567 -4.977,5.573 -4.977,9.016c0,2.191 0.688,4.164 2.066,5.917c1.377,1.815 3.537,3.318 6.48,4.508c1.69,0.626 6.668,2.066 14.932,4.32c11.959,3.193 20.301,5.807 25.028,7.841c4.727,2.035 8.437,4.994 11.129,8.875c2.692,3.882 4.038,8.703 4.038,14.463c0,5.635 -1.643,10.941 -4.93,15.919c-3.287,4.977 -8.03,8.827 -14.228,11.551c-6.198,2.723 -13.211,4.085 -21.037,4.085c-12.96,0 -22.837,-2.692 -29.63,-8.076c-6.793,-5.385 -11.129,-13.368 -13.007,-23.948Z" style="fill:none;stroke:#000;stroke-width:4px;" class="fELdpZpP_23"></path><path d="M1629.84,688.055l0,-19.44l16.904,0l0,19.44l-16.904,0Zm0,118.238l0,-99.736l16.904,0l0,99.736l-16.904,0Z" style="fill:none;stroke:#000;stroke-width:4px;" class="fELdpZpP_24"></path><path d="M1709.39,791.173l2.442,14.932c-4.758,1.002 -9.016,1.503 -12.772,1.503c-6.136,0 -10.894,-0.97 -14.275,-2.911c-3.381,-1.941 -5.76,-4.493 -7.138,-7.654c-1.377,-3.162 -2.066,-9.814 -2.066,-19.957l0,-57.381l-12.397,0l0,-13.148l12.397,0l0,-24.7l16.811,-10.143l0,34.843l16.998,0l0,13.148l-16.998,0l0,58.32c0,4.821 0.297,7.92 0.892,9.298c0.595,1.377 1.565,2.473 2.911,3.287c1.346,0.814 3.271,1.22 5.776,1.22c1.878,0 4.351,-0.219 7.419,-0.657Z" style="fill:none;stroke:#000;stroke-width:4px;" class="fELdpZpP_25"></path><path d="M1794.19,774.175l17.468,2.16c-2.754,10.205 -7.857,18.125 -15.308,23.76c-7.45,5.635 -16.967,8.452 -28.549,8.452c-14.588,0 -26.155,-4.492 -34.702,-13.476c-8.546,-8.985 -12.819,-21.585 -12.819,-37.801c0,-16.779 4.32,-29.802 12.96,-39.068c8.64,-9.266 19.847,-13.899 33.621,-13.899c13.336,0 24.23,4.539 32.683,13.617c8.452,9.079 12.678,21.851 12.678,38.317c0,1.002 -0.031,2.504 -0.094,4.508l-74.38,0c0.626,10.957 3.725,19.346 9.298,25.169c5.572,5.823 12.521,8.734 20.849,8.734c6.198,0 11.488,-1.628 15.871,-4.884c4.383,-3.255 7.857,-8.452 10.424,-15.589Zm-55.503,-27.329l55.691,0c-0.751,-8.39 -2.88,-14.682 -6.386,-18.877c-5.384,-6.511 -12.365,-9.767 -20.943,-9.767c-7.763,0 -14.29,2.598 -19.581,7.795c-5.29,5.196 -8.217,12.146 -8.781,20.849Z" style="fill:none;stroke:#000;stroke-width:4px;" class="fELdpZpP_26"></path></g><style data-made-with="vivus-instant">.fELdpZpP_0{stroke-dasharray:1120 1122;stroke-dashoffset:1121;animation:fELdpZpP_draw 2666ms ease-in-out 0ms forwards;}.fELdpZpP_1{stroke-dasharray:624 626;stroke-dashoffset:625;animation:fELdpZpP_draw 2666ms ease-in-out 51ms forwards;}.fELdpZpP_2{stroke-dasharray:310 312;stroke-dashoffset:311;animation:fELdpZpP_draw 2666ms ease-in-out 102ms forwards;}.fELdpZpP_3{stroke-dasharray:487 489;stroke-dashoffset:488;animation:fELdpZpP_draw 2666ms ease-in-out 153ms forwards;}.fELdpZpP_4{stroke-dasharray:535 537;stroke-dashoffset:536;animation:fELdpZpP_draw 2666ms ease-in-out 205ms forwards;}.fELdpZpP_5{stroke-dasharray:807 809;stroke-dashoffset:808;animation:fELdpZpP_draw 2666ms ease-in-out 256ms forwards;}.fELdpZpP_6{stroke-dasharray:624 626;stroke-dashoffset:625;animation:fELdpZpP_draw 2666ms ease-in-out 307ms forwards;}.fELdpZpP_7{stroke-dasharray:494 496;stroke-dashoffset:495;animation:fELdpZpP_draw 2666ms ease-in-out 358ms forwards;}.fELdpZpP_8{stroke-dasharray:535 537;stroke-dashoffset:536;animation:fELdpZpP_draw 2666ms ease-in-out 410ms forwards;}.fELdpZpP_9{stroke-dasharray:680 682;stroke-dashoffset:681;animation:fELdpZpP_draw 2666ms ease-in-out 461ms forwards;}.fELdpZpP_10{stroke-dasharray:319 321;stroke-dashoffset:320;animation:fELdpZpP_draw 2666ms ease-in-out 512ms forwards;}.fELdpZpP_11{stroke-dasharray:638 640;stroke-dashoffset:639;animation:fELdpZpP_draw 2666ms ease-in-out 564ms forwards;}.fELdpZpP_12{stroke-dasharray:418 420;stroke-dashoffset:419;animation:fELdpZpP_draw 2666ms ease-in-out 615ms forwards;}.fELdpZpP_13{stroke-dasharray:381 383;stroke-dashoffset:382;animation:fELdpZpP_draw 2666ms ease-in-out 666ms forwards;}.fELdpZpP_14{stroke-dasharray:1106 1108;stroke-dashoffset:1107;animation:fELdpZpP_draw 2666ms ease-in-out 717ms forwards;}.fELdpZpP_15{stroke-dasharray:638 640;stroke-dashoffset:639;animation:fELdpZpP_draw 2666ms ease-in-out 769ms forwards;}.fELdpZpP_16{stroke-dasharray:381 383;stroke-dashoffset:382;animation:fELdpZpP_draw 2666ms ease-in-out 820ms forwards;}.fELdpZpP_17{stroke-dasharray:598 600;stroke-dashoffset:599;animation:fELdpZpP_draw 2666ms ease-in-out 871ms forwards;}.fELdpZpP_18{stroke-dasharray:128 130;stroke-dashoffset:129;animation:fELdpZpP_draw 2666ms ease-in-out 923ms forwards;}.fELdpZpP_19{stroke-dasharray:553 555;stroke-dashoffset:554;animation:fELdpZpP_draw 2666ms ease-in-out 974ms forwards;}.fELdpZpP_20{stroke-dasharray:1120 1122;stroke-dashoffset:1121;animation:fELdpZpP_draw 2666ms ease-in-out 1025ms forwards;}.fELdpZpP_21{stroke-dasharray:624 626;stroke-dashoffset:625;animation:fELdpZpP_draw 2666ms ease-in-out 1076ms forwards;}.fELdpZpP_22{stroke-dasharray:658 660;stroke-dashoffset:659;animation:fELdpZpP_draw 2666ms ease-in-out 1128ms forwards;}.fELdpZpP_23{stroke-dasharray:553 555;stroke-dashoffset:554;animation:fELdpZpP_draw 2666ms ease-in-out 1179ms forwards;}.fELdpZpP_24{stroke-dasharray:306 308;stroke-dashoffset:307;animation:fELdpZpP_draw 2666ms ease-in-out 1230ms forwards;}.fELdpZpP_25{stroke-dasharray:381 383;stroke-dashoffset:382;animation:fELdpZpP_draw 2666ms ease-in-out 1282ms forwards;}.fELdpZpP_26{stroke-dasharray:624 626;stroke-dashoffset:625;animation:fELdpZpP_draw 2666ms ease-in-out 1333ms forwards;}@keyframes fELdpZpP_draw{100%{stroke-dashoffset:0;}}@keyframes fELdpZpP_fade{0%{stroke-opacity:1;}95.1219512195122%{stroke-opacity:1;}100%{stroke-opacity:0;}}</style></svg>